<svg xmlns="http://www.w3.org/2000/svg" width="24" height="24" viewBox="0 0 24 24" fill="none">
    <path class="group-hover/item:fill-brand transition duration-500"
        d="M18.9325 15.5623H18.1876V14.2498H18.7501C18.8993 14.2498 19.0424 14.1905 19.1479 14.085C19.2533 13.9795 19.3126 13.8365 19.3126 13.6873V11.8123C19.3126 11.6631 19.2533 11.52 19.1479 11.4145C19.0424 11.309 18.8993 11.2498 18.7501 11.2498H15.7501C15.6658 11.2498 15.5825 11.2687 15.5065 11.3052C15.4304 11.3417 15.3636 11.3949 15.3109 11.4607L14.5609 12.3982C14.4811 12.498 14.4376 12.6219 14.4376 12.7496C14.4376 12.8773 14.4811 13.0012 14.5609 13.101L15.3109 14.0385C15.3636 14.1044 15.4304 14.1576 15.5064 14.1942C15.5825 14.2307 15.6657 14.2497 15.7501 14.2498H17.0626V15.5623H12.5082C12.6153 15.1552 12.6717 14.7364 12.676 14.3154C12.6762 13.4139 12.4827 12.523 12.1084 11.7029C11.7341 10.8828 11.1879 10.1528 10.5068 9.56228H16.8751C17.0243 9.56228 17.1674 9.50301 17.2729 9.39752C17.3783 9.29203 17.4376 9.14896 17.4376 8.99978C17.4376 8.85059 17.3783 8.70752 17.2729 8.60203C17.1674 8.49654 17.0243 8.43728 16.8751 8.43728H8.64348C7.92002 8.15726 7.15087 8.01396 6.37511 8.01465C2.90078 8.01465 0.0742188 10.8412 0.0742188 14.3155C0.0742188 18.2607 5.75406 23.492 5.99584 23.7128C6.09949 23.8074 6.23476 23.8599 6.37511 23.8599C6.51545 23.8599 6.65073 23.8074 6.75438 23.7128C6.9497 23.5344 10.6937 20.0859 12.1253 16.6873H18.9325C19.7295 16.6862 20.4943 17.0018 21.0586 17.5646C21.623 18.1274 21.9406 18.8913 21.9417 19.6884C21.9428 20.4854 21.6272 21.2502 21.0644 21.8145C20.5016 22.3789 19.7376 22.6965 18.9406 22.6976L9.37295 22.7342C9.22377 22.7344 9.08081 22.794 8.97552 22.8997C8.87023 23.0054 8.81125 23.1485 8.81153 23.2977C8.81182 23.4469 8.87136 23.5899 8.97705 23.6952C9.08274 23.8004 9.22593 23.8594 9.37511 23.8592H9.37731L18.9445 23.8226C19.4869 23.8218 20.0238 23.7142 20.5246 23.5059C21.0254 23.2976 21.4802 22.9927 21.8632 22.6086C22.2462 22.2246 22.5497 21.7688 22.7565 21.2674C22.9634 20.766 23.0694 20.2288 23.0686 19.6864C23.0678 19.144 22.9602 18.6071 22.7519 18.1063C22.5436 17.6055 22.2388 17.1507 21.8547 16.7677C21.4706 16.3848 21.0149 16.0812 20.5135 15.8744C20.0121 15.6675 19.4748 15.5615 18.9325 15.5623ZM15.7204 12.7498L16.0204 12.3748H18.1876V13.1248H16.0205L15.7204 12.7498ZM6.37511 22.52C5.12195 21.2966 1.19922 17.2329 1.19922 14.3154C1.19922 12.9427 1.74453 11.6262 2.7152 10.6555C3.68587 9.68483 5.00238 9.13951 6.37511 9.13951C7.74784 9.13951 9.06435 9.68483 10.035 10.6555C11.0057 11.6262 11.551 12.9427 11.551 14.3154C11.551 14.8063 11.4393 15.33 11.2482 15.867C11.2271 15.9079 11.2111 15.9514 11.2007 15.9962C10.2114 18.6154 7.3998 21.5188 6.37511 22.52Z"
        fill="#696767"></path>
    <path class="group-hover/item:fill-brand transition duration-500"
        d="M6.375 10.1906C5.55915 10.1906 4.76163 10.4326 4.08327 10.8858C3.40492 11.3391 2.87621 11.9833 2.564 12.7371C2.25179 13.4908 2.1701 14.3202 2.32926 15.1204C2.48843 15.9205 2.88129 16.6556 3.45819 17.2324C4.03508 17.8093 4.77008 18.2022 5.57025 18.3614C6.37043 18.5205 7.19983 18.4388 7.95357 18.1266C8.70732 17.8144 9.35155 17.2857 9.80481 16.6074C10.2581 15.929 10.5 15.1315 10.5 14.3156C10.4988 13.222 10.0638 12.1735 9.29045 11.4002C8.51713 10.6269 7.46864 10.1919 6.375 10.1906ZM6.375 17.3156C5.78166 17.3156 5.20164 17.1397 4.70829 16.81C4.21494 16.4804 3.83043 16.0119 3.60336 15.4637C3.3763 14.9155 3.31689 14.3123 3.43265 13.7304C3.5484 13.1484 3.83412 12.6139 4.25368 12.1943C4.67324 11.7747 5.20779 11.489 5.78973 11.3733C6.37167 11.2575 6.97487 11.3169 7.52305 11.544C8.07123 11.7711 8.53977 12.1556 8.86941 12.6489C9.19905 13.1423 9.375 13.7223 9.375 14.3156C9.37411 15.111 9.05775 15.8735 8.49534 16.436C7.93292 16.9984 7.17038 17.3147 6.375 17.3156ZM19.5765 9.49088C19.6753 9.56767 19.7968 9.60935 19.9219 9.60935C20.047 9.60935 20.1685 9.56767 20.2672 9.49088C20.8973 8.98488 21.486 8.42928 22.0275 7.82939C23.2431 6.47878 23.8594 5.24822 23.8594 4.17188C23.8594 3.12759 23.4445 2.12607 22.7061 1.38764C21.9677 0.649218 20.9662 0.234375 19.9219 0.234375C18.8776 0.234375 17.8761 0.649218 17.1376 1.38764C16.3992 2.12607 15.9844 3.12759 15.9844 4.17188C15.9844 5.24822 16.6007 6.47878 17.8163 7.82939C18.3578 8.42928 18.9464 8.98488 19.5765 9.49088ZM19.9219 1.35938C20.6675 1.36022 21.3824 1.65681 21.9097 2.18407C22.4369 2.71133 22.7335 3.42621 22.7344 4.17188C22.7344 5.60569 20.94 7.44441 19.9219 8.31891C18.9036 7.44427 17.1094 5.60559 17.1094 4.17188C17.1102 3.42621 17.4068 2.71133 17.9341 2.18407C18.4613 1.65681 19.1762 1.36022 19.9219 1.35938Z"
        fill="#696767"></path>
    <path
        d="M21.7969 4.17188C21.7969 3.80104 21.6869 3.43852 21.4809 3.13018C21.2749 2.82184 20.982 2.58152 20.6394 2.4396C20.2968 2.29769 19.9198 2.26056 19.5561 2.3329C19.1924 2.40525 18.8583 2.58383 18.5961 2.84605C18.3338 3.10827 18.1553 3.44237 18.0829 3.80608C18.0106 4.1698 18.0477 4.5468 18.1896 4.88941C18.3315 5.23202 18.5718 5.52485 18.8802 5.73088C19.1885 5.93691 19.551 6.04688 19.9219 6.04688C20.419 6.04632 20.8956 5.84859 21.2471 5.49708C21.5986 5.14557 21.7963 4.66899 21.7969 4.17188ZM19.1719 4.17188C19.1719 4.02354 19.2159 3.87854 19.2983 3.7552C19.3807 3.63186 19.4978 3.53573 19.6349 3.47897C19.7719 3.4222 19.9227 3.40735 20.0682 3.43629C20.2137 3.46523 20.3473 3.53666 20.4522 3.64155C20.5571 3.74644 20.6285 3.88007 20.6575 4.02556C20.6864 4.17104 20.6716 4.32184 20.6148 4.45889C20.558 4.59593 20.4619 4.71307 20.3386 4.79548C20.2152 4.87789 20.0702 4.92188 19.9219 4.92188C19.723 4.92164 19.5324 4.84255 19.3918 4.70195C19.2512 4.56134 19.1721 4.37072 19.1719 4.17188Z"
        fill="#696767"></path>
</svg>