<svg xmlns="http://www.w3.org/2000/svg" width="25" height="24" viewBox="0 0 25 24" fill="none">
    <g clip-path="url(#clip0_28313_1916)">
        <path class="group-hover/item:fill-brand transition duration-500"
            d="M6.09985 4.8001C6.09985 4.13738 6.63714 3.6001 7.29985 3.6001H22.8999C23.5626 3.6001 24.0999 4.13738 24.0999 4.8001C24.0999 5.46282 23.5626 6.0001 22.8999 6.0001H7.29985C6.63714 6.0001 6.09985 5.46277 6.09985 4.8001ZM22.8999 10.8001H1.29985C0.637135 10.8001 0.0998535 11.3374 0.0998535 12.0001C0.0998535 12.6628 0.637135 13.2001 1.29985 13.2001H22.8999C23.5626 13.2001 24.0999 12.6628 24.0999 12.0001C24.0999 11.3374 23.5626 10.8001 22.8999 10.8001ZM22.8999 18.0001H12.0999C11.4372 18.0001 10.8999 18.5374 10.8999 19.2001C10.8999 19.8628 11.4372 20.4001 12.0999 20.4001H22.8999C23.5626 20.4001 24.0999 19.8628 24.0999 19.2001C24.0999 18.5374 23.5626 18.0001 22.8999 18.0001Z"
            fill="#696767"></path>
    </g>
    <defs>
        <clipPath id="clip0_28313_1916">
            <rect width="24" height="24" fill="white" transform="translate(0.0998535)"></rect>
        </clipPath>
    </defs>
</svg>