<svg width="20" height="20" viewBox="0 0 17 15" fill="none" xmlns="http://www.w3.org/2000/svg" class="mr-2">
    <path
        d="M1.2742 5.41887L6.36913 4.94633L8.39298 0.246798C8.53467 -0.0822661 9.00125 -0.0822661 9.14294 0.246798L11.1668 4.94636L16.2617 5.41887C16.6184 5.45195 16.7626 5.89567 16.4934 6.13211L12.6493 9.50915L13.7743 14.5008C13.8531 14.8502 13.4756 15.1245 13.1676 14.9416L8.76794 12.3291L4.36832 14.9416C4.06027 15.1245 3.68279 14.8502 3.76156 14.5008L4.88657 9.50915L1.04244 6.13211C0.773279 5.89567 0.917458 5.45195 1.2742 5.41887Z"
        fill="#FFDC64"></path>
    <path
        d="M8.39296 0.246799C8.53465 -0.0822663 9.00123 -0.0822663 9.14292 0.246799L11.1667 4.94637L16.2617 5.41888C16.6184 5.45196 16.7626 5.89569 16.4934 6.13212L12.6493 9.50917L13.7743 14.5008C13.8531 14.8503 13.4756 15.1245 13.1676 14.9416L12.1856 14.3585C12.0497 8.76397 9.45026 4.82425 7.39225 2.5705L8.39296 0.246799Z"
        fill="#FFC850"></path>
</svg>