<svg xmlns="http://www.w3.org/2000/svg" width="24" height="24" viewBox="0 0 24 24" fill="none">
    <g clip-path="url(#clip0_28313_1907)">
        <path class="group-hover/item:fill-brand transition duration-500"
            d="M22.3148 10.4635C22.2294 7.85483 21.1515 5.37712 19.3013 3.53613C17.3502 1.58463 14.7571 0.510254 12.0001 0.510254C6.43171 0.510254 1.88184 4.94238 1.68571 10.4635C1.25635 10.6537 0.891364 10.9643 0.634978 11.3578C0.378592 11.7512 0.241811 12.2105 0.241211 12.6801V15.4034C0.241906 16.0464 0.497672 16.663 0.952391 17.1177C1.40711 17.5724 2.02364 17.8282 2.66671 17.8289C3.08278 17.8284 3.48167 17.6629 3.77588 17.3687C4.07009 17.0745 4.23559 16.6756 4.23609 16.2595V11.8236C4.23609 11.011 3.61284 10.3484 2.82046 10.2696C3.11296 5.4595 7.11721 1.63525 12.0001 1.63525C14.4571 1.63525 16.7675 2.593 18.5063 4.33188C20.1031 5.92863 21.0376 8.00988 21.1782 10.27C20.3866 10.3495 19.7645 11.0118 19.7645 11.8236V16.2591C19.7645 17.0785 20.3975 17.7453 21.1992 17.8146V18.9355C21.1985 19.5424 20.9571 20.1243 20.5279 20.5534C20.0987 20.9826 19.5168 21.2239 18.9098 21.2245H17.2145C17.1002 20.8913 16.8844 20.6022 16.5974 20.3979C16.3104 20.1935 15.9666 20.0842 15.6143 20.0853H13.8668C13.616 20.0853 13.3752 20.1385 13.1547 20.2413C12.8595 20.3777 12.6094 20.5957 12.434 20.8695C12.2585 21.1434 12.1651 21.4618 12.1647 21.787C12.1647 22.2423 12.3421 22.6698 12.6635 22.9896C12.821 23.1484 13.0085 23.2743 13.215 23.3601C13.4216 23.4458 13.6432 23.4897 13.8668 23.4891H15.6143C16.3388 23.4891 16.9775 23.0208 17.2156 22.3495H18.9098C20.7927 22.3495 22.3242 20.818 22.3242 18.9355V17.6144C22.751 17.4231 23.1135 17.1126 23.368 16.7203C23.6226 16.3279 23.7583 15.8703 23.759 15.4026V12.6794C23.759 11.6916 23.1642 10.8411 22.3148 10.4635ZM3.11071 11.8236V16.2591C3.11071 16.504 2.91159 16.7035 2.66634 16.7035C2.32154 16.7031 1.99099 16.566 1.74718 16.3222C1.50338 16.0784 1.36623 15.7478 1.36584 15.403V12.6798C1.36623 12.335 1.50338 12.0044 1.74718 11.7606C1.99099 11.5168 2.32154 11.3797 2.66634 11.3793C2.91159 11.3793 3.11071 11.5788 3.11071 11.8236ZM16.1787 21.9078C16.1508 22.0369 16.0795 22.1526 15.9768 22.2358C15.8741 22.3189 15.7461 22.3645 15.614 22.3649H13.8665C13.7127 22.3649 13.5683 22.3049 13.4581 22.1946C13.4044 22.1414 13.3619 22.078 13.3329 22.0081C13.3039 21.9383 13.2891 21.8634 13.2893 21.7878C13.2897 21.6348 13.3507 21.4883 13.4588 21.3802C13.567 21.2722 13.7136 21.2113 13.8665 21.211H15.614C15.7677 21.211 15.9121 21.2706 16.022 21.3809C16.1307 21.4893 16.1907 21.634 16.1907 21.7878C16.1911 21.829 16.1866 21.8703 16.1787 21.9078ZM22.634 15.403C22.6336 15.7478 22.4964 16.0784 22.2526 16.3222C22.0088 16.566 21.6783 16.7031 21.3335 16.7035C21.2156 16.7034 21.1027 16.6566 21.0194 16.5732C20.936 16.4899 20.8892 16.377 20.8891 16.2591V11.8236C20.8891 11.5788 21.0882 11.3793 21.3335 11.3793C21.6783 11.3797 22.0088 11.5168 22.2526 11.7606C22.4964 12.0044 22.6336 12.335 22.634 12.6798V15.403Z"
            fill="#696767"></path>
        <path class="group-hover/item:fill-brand transition duration-500"
            d="M15.6424 15.5968C16.2743 15.5961 16.8802 15.3447 17.327 14.8979C17.7738 14.451 18.0252 13.8452 18.0259 13.2133V8.35664C18.0259 7.72139 17.7776 7.12289 17.3269 6.67214C16.8761 6.22139 16.278 5.97314 15.6424 5.97314H8.35762C7.72569 5.97384 7.11984 6.22518 6.673 6.67202C6.22616 7.11887 5.97482 7.72471 5.97412 8.35664V13.2133C5.97482 13.8452 6.22616 14.451 6.673 14.8979C7.11984 15.3447 7.72569 15.5961 8.35762 15.5968H8.40225V16.8553C8.4015 17.0089 8.43115 17.1612 8.48948 17.3034C8.54781 17.4456 8.63367 17.5748 8.74212 17.6837C8.85058 17.7926 8.97949 17.8789 9.12144 17.9378C9.26338 17.9967 9.41557 18.0269 9.56925 18.0268C9.72282 18.0271 9.87488 17.9965 10.0164 17.9367C10.1578 17.877 10.2859 17.7894 10.3927 17.6791L12.4864 15.5968H15.6424ZM11.8582 14.6353L9.5925 16.8886C9.58237 16.8991 9.57487 16.907 9.5535 16.8976C9.52762 16.8871 9.52762 16.8703 9.52762 16.8553V15.0343C9.52762 14.8851 9.46836 14.742 9.36287 14.6365C9.25738 14.531 9.11431 14.4718 8.96512 14.4718H8.358C8.02434 14.4714 7.70447 14.3387 7.46854 14.1027C7.23261 13.8668 7.09989 13.5469 7.0995 13.2133V8.35664C7.09989 8.02299 7.23261 7.70312 7.46854 7.46719C7.70447 7.23126 8.02434 7.09854 8.358 7.09814H15.6427C15.978 7.09814 16.2934 7.22939 16.5319 7.46752C16.7704 7.70602 16.9012 8.02177 16.9012 8.35664V13.2133C16.9008 13.5469 16.7681 13.8668 16.5322 14.1027C16.2963 14.3387 15.9764 14.4714 15.6427 14.4718H12.255C12.1061 14.4718 11.9636 14.5306 11.8582 14.6353Z"
            fill="#696767"></path>
        <path class="group-hover/item:fill-brand transition duration-500"
            d="M9.26737 10.0449C8.80987 10.0449 8.4375 10.4177 8.4375 10.8748C8.4375 11.3319 8.81025 11.7047 9.26737 11.7047C9.72525 11.7047 10.098 11.3319 10.098 10.8748C10.098 10.4177 9.72562 10.0449 9.26737 10.0449ZM11.9996 10.0449C11.5421 10.0449 11.1697 10.4177 11.1697 10.8748C11.1697 11.3319 11.5425 11.7047 11.9996 11.7047C12.4579 11.7047 12.8303 11.3319 12.8303 10.8748C12.8303 10.4177 12.4579 10.0449 11.9996 10.0449ZM14.7319 10.0449C14.2744 10.0449 13.902 10.4177 13.902 10.8748C13.902 11.3319 14.2747 11.7047 14.7319 11.7047C15.1897 11.7047 15.5625 11.3319 15.5625 10.8748C15.5625 10.4177 15.1897 10.0449 14.7319 10.0449Z"
            fill="#696767"></path>
    </g>
    <defs>
        <clipPath id="clip0_28313_1907">
            <rect width="24" height="24" fill="white"></rect>
        </clipPath>
    </defs>
</svg>